<svg width="170" height="28" viewBox="0 0 170 28" xmlns="http://www.w3.org/2000/svg"><title>logo-lf/normal</title><g fill="none" fill-rule="evenodd"><path fill="#FFF" d="M42.16 2.84h2.87v19.192h11.42v2.42H42.16V2.84m15.322 21.612h2.87V2.84h-2.87zm24.411-2.693c-1.299 2.028-3.746 3.056-6.101 3.056-5.831 0-6.737-4.147-6.737-5.901 0-3.39 2.295-5.086 5.045-6.54-1.208-1.724-2.387-2.875-2.387-5.084 0-2.362 1.752-4.45 4.864-4.45 2.688 0 5.227 1.483 5.227 4.419 0 2.573-1.965 4.42-4.05 5.6l3.898 4.752c.392-1.059.634-2.21.696-3.36h2.446c-.21 2.543-.543 3.421-1.45 5.328l4.2 4.873H84.19l-2.298-2.693zm-6.374-7.75c-2.025 1.15-3.746 2.301-3.746 4.874 0 2.179 2.025 3.663 4.108 3.663 1.966 0 3.536-1 4.593-2.574l-4.955-5.962zm3.717-6.599c0-1.24-.936-2.3-2.478-2.3-1.208 0-2.477.727-2.477 2.3 0 1.302 1.147 2.573 2.085 3.754 1.238-.787 2.87-1.937 2.87-3.754zm15.442-4.57h14.17v2.42h-11.3v6.871h9.91v2.422h-9.91v9.898h-2.87V2.84m32.994 13.802c0 5.45-3.112 8.326-8.49 8.326-5.558 0-8.852-2.574-8.852-8.326V2.839h2.87v13.803c0 3.815 2.176 5.904 5.982 5.904 3.625 0 5.62-2.09 5.62-5.904V2.839h2.87v13.803m2.994-13.802h3.052l11.36 17.526h.06V2.839h2.719v21.613h-3.143L133.447 7.108h-.062v17.344h-2.719V2.84m36.409 18.919c-1.663 2.27-4.38 3.209-6.918 3.209-6.436 0-10.273-5.267-10.273-10.898 0-6.296 3.444-11.746 10.273-11.746 4.713 0 8.457 2.12 9.275 7.175h-2.87c-.574-3.269-3.203-4.753-6.405-4.753-5.227 0-7.403 4.542-7.403 9.173 0 4.51 2.598 8.627 7.403 8.627 4.44 0 7.1-3.118 6.918-7.054h-6.889V13.07h9.457v11.382h-1.812l-.756-2.693"/><path d="M29.196 27.488a3.652 3.652 0 0 0 3.647-3.647V3.654A3.66 3.66 0 0 0 29.196 0H3.646A3.657 3.657 0 0 0 0 3.654v20.187a3.65 3.65 0 0 0 3.647 3.647h25.549" fill="#ED2327"/><path d="M12.402 4.07s-.218-1.196 1.603-1.256c1.827-.043 5.466.011 6.422.214.972.203 4.75.451 8.454 3.194.044.028 2.332 1.106 1.272 2.277-1.06 1.164-2.735-.553-2.735-.553l-.456-.057s-.207.216-.256.867c-.048.653.707 4.547-1.26 4.358-1.289-.129-1.04-1.64-1.074-1.812-.02-.175-.048-4.16-.048-4.16s.082-.558-.531-.789c-.61-.224-2.485-1.01-3.137-1.067-.657-.053-1.262-.026-1.539.105 0 0-.202.762-.202 1.291 0 .527-.017.732.082 1.37 0 .01.043.01.011.261-.044.254-.206.947-.165 1.218.034.275.143.902.756.913.62.017.506-.872.49-1.008-.027-.147-.495-1.288-.456-1.663.05-.384.235-1.022 1.034-1.042.809-.01 1.42.622 1.678 1.567.278.95.15 1.888.09 2.454-.077.568-.337 2.159-.376 2.845-.033.684-.044 1.79.233 2.555 0 .005 0 .155.406.956.006.014.066.022.044.288-.021.25-.27 1.132-1 1.091-.712-.049-1.858-1.023-1.946-2.737-.083-1.718-.178-2.817-.178-2.817s.01-.271-.242-.23c-.248.047-.225.1-.248.282-.032.18-.37 2.108-.326 3.903.034 1.756.096 1.69.096 1.69s.05.119.033.276c-.016.154-.043.353.11.37.145.019.637.047.804.067.162.01 1.206-.117 1.539.487.336.6.272 1.31-.397 1.681-.68.373-1.83.33-2.185.297-.354-.034-1.441-.216-2.007-.162-.567.049-2.463.204-2.936-.203-.473-.41-.526-.721-.473-1.13.054-.403.289-.965 1.337-1.018 1.056-.053 1.44-.021 1.44-.021s.18-1.541.218-1.99c.021-.456.154-4.121.154-4.282 0-.18-.039-5.853-.039-5.853l.045-1.566c.005-.049.036-.469-.492-.48a6.15 6.15 0 0 0-1.19.055c-.466.047-1.733.291-2.196-.27-.363-.453-.26-.766-.26-.766" fill="#FFF"/><path d="M12.607 6.118s1.751-.129 2.637 1.546c.442.831.685 2.68-.467 2.823-1.157.157-1.386-.695-1.435-.858-.05-.137-.103-.278-.194-.922 0-.017-.095-.537-.74-.467-.643.072-.752.926-.731 1.11.017.236.06.555.5 1.552 0 0 .295.498.11 1.307-.184.812-.686 2.36-.686 2.36s-.396 1.227-.085 2.05c.305.817.854.794 1.054.741.218-.055.658-.479.32-1.323-.343-.84-.526-1.112-.433-1.642.09-.524.349-1.24.905-1.845.558-.602 1.034-1.078 1.513-1.053.48.026 1.202.389 1.174 1.067 0 .163-.017.432-.67 1.316-.008.015-.52.595-.434 1.456.055.64.333 1.673.164 2.193-.164.52-.474 1.214-1.522 1.742-1.056.524-2.3.563-3.36-.647-1.023-1.163-.897-1.834-.935-2.154-.027-.318-.19-1.174.017-1.895.234-.764.683-2.056.666-2.843 0-.392-.486-1.519-.337-2.807.034-.209.278-1.564 1.328-2.223.825-.532 1.228-.515 1.641-.584" fill="#FFF"/><path d="M2.806 7.96s-.305-.417.2-1.008A6.397 6.397 0 0 1 5.499 5.16c1.283-.525 2.974-1.06 3.25-1.153.274-.083.93-.324 1.029-.345.103-.028.64-.345 1.168.021.528.371.81.972.45 1.535-.313.497-.93.528-1.037.549-.131.036-.908.13-1.082.5 0 0-.07.123-.109.386C9.134 6.926 8.89 9.4 8.89 9.4s-.14 2.496-.152 3.933c-.006 1.428.011 3.911.011 3.911l.011 3.518s.422.356.69.464c.279.112 1.838.698 2.9.85 1.065.147 3.543.36 4.566.312.343-.017 4.247.108 6.622-1.042 0 0 .598-.124.603-.831.017-.71-.032-3.49-.032-3.49s.032-1.616.255-2.182c.213-.57.697-.742 1.116-.714.412.031.912.193 1.037.814.12.624.239 1.645.249 2.475.018.824-.019 1.242-.047 1.48-.028.25-.043.548.13.659.158.116.63-.022.805-.11.185-.092 1.152-.624 1.152-.624s.8-.315 1.208.325c.401.63.211 1.137-.131 1.498-.343.374-1.337 1.25-2.327 1.634-1.006.4-3.823 1.464-4.72 1.695-.908.234-3.315.77-5.137.762-1.817-.011-3.382 0-4.673-.252-1.27-.25-3.749-.711-5.64-1.576-1.029-.464-3.339-1.563-4.215-2.22 0 0-.686-.628-.613-1.188.081-.566.435-.899.831-.944.43-.054.755.077 1.039.23.289.148 1.015.637 1.015.637s.028-.04.196.022c.18.072.282.1.282.1s.09.09.139-.19c.032-.278.21-1.602.254-2.277.054-.693.13-9.213.13-9.213s.082-.27-.19-.255c-.26.017-.403.15-.403.15s-.995.55-1.2.634c-.223.09-.728.329-1.262.06-.212-.098-.491-.272-.582-.496m24.703 5.852s-.048-1.29 1.37-1.392c1.278-.09 1.513 1.392 1.513 1.392s0 1.467-1.404 1.467c-1.413 0-1.478-1.467-1.478-1.467" fill="#FFF"/><path d="M4.013 12.086s1.373-.09 1.485 1.51c.087 1.152-1.154 1.39-1.154 1.39s-1.777.184-1.721-1.592c.036-1.23 1.39-1.308 1.39-1.308" fill="#FFF"/></g></svg>